<mxfile host="Electron" agent="Mozilla/5.0 (X11; Linux x86_64) AppleWebKit/537.36 (KHTML, like Gecko) draw.io/24.7.17 Chrome/128.0.6613.36 Electron/32.0.1 Safari/537.36" version="24.7.17">
  <diagram name="Page-1" id="42CvASub1HwD-BygPTsV">
    <mxGraphModel dx="1368" dy="835" grid="1" gridSize="10" guides="1" tooltips="1" connect="1" arrows="1" fold="1" page="1" pageScale="1" pageWidth="850" pageHeight="1100" math="0" shadow="0">
      <root>
        <mxCell id="0" />
        <mxCell id="1" parent="0" />
        <mxCell id="kB5Wtqeiwu8v_5wdKeYX-100" value="" style="edgeStyle=orthogonalEdgeStyle;rounded=0;orthogonalLoop=1;jettySize=auto;html=1;exitX=1;exitY=0.5;exitDx=0;exitDy=0;" parent="1" source="kB5Wtqeiwu8v_5wdKeYX-57" target="kB5Wtqeiwu8v_5wdKeYX-99" edge="1">
          <mxGeometry relative="1" as="geometry">
            <Array as="points" />
          </mxGeometry>
        </mxCell>
        <mxCell id="kB5Wtqeiwu8v_5wdKeYX-28" value="Упражнение 3" style="shape=table;startSize=40;container=1;collapsible=0;childLayout=tableLayout;fontSize=16;fontStyle=1;perimeterSpacing=10;" parent="1" vertex="1">
          <mxGeometry x="40" y="40" width="750" height="840" as="geometry" />
        </mxCell>
        <mxCell id="kB5Wtqeiwu8v_5wdKeYX-29" value="" style="shape=tableRow;horizontal=0;startSize=0;swimlaneHead=0;swimlaneBody=0;strokeColor=inherit;top=0;left=0;bottom=0;right=0;collapsible=0;dropTarget=0;fillColor=none;points=[[0,0.5],[1,0.5]];portConstraint=eastwest;" parent="kB5Wtqeiwu8v_5wdKeYX-28" vertex="1">
          <mxGeometry y="40" width="750" height="40" as="geometry" />
        </mxCell>
        <mxCell id="kB5Wtqeiwu8v_5wdKeYX-30" value="&lt;font style=&quot;font-size: 14px;&quot;&gt;&lt;b&gt;Заголовок&lt;/b&gt;&lt;/font&gt;" style="shape=partialRectangle;html=1;whiteSpace=wrap;connectable=0;strokeColor=inherit;overflow=hidden;fillColor=none;top=0;left=0;bottom=0;right=0;pointerEvents=1;" parent="kB5Wtqeiwu8v_5wdKeYX-29" vertex="1">
          <mxGeometry width="240" height="40" as="geometry">
            <mxRectangle width="240" height="40" as="alternateBounds" />
          </mxGeometry>
        </mxCell>
        <mxCell id="kB5Wtqeiwu8v_5wdKeYX-31" value="&lt;font style=&quot;font-size: 14px;&quot;&gt;Установка категорий кэшбэка на следующий месяц&lt;/font&gt;" style="shape=partialRectangle;html=1;whiteSpace=wrap;connectable=0;strokeColor=inherit;overflow=hidden;fillColor=none;top=0;left=0;bottom=0;right=0;pointerEvents=1;" parent="kB5Wtqeiwu8v_5wdKeYX-29" vertex="1">
          <mxGeometry x="240" width="510" height="40" as="geometry">
            <mxRectangle width="510" height="40" as="alternateBounds" />
          </mxGeometry>
        </mxCell>
        <mxCell id="kB5Wtqeiwu8v_5wdKeYX-33" value="" style="shape=tableRow;horizontal=0;startSize=0;swimlaneHead=0;swimlaneBody=0;strokeColor=inherit;top=0;left=0;bottom=0;right=0;collapsible=0;dropTarget=0;fillColor=none;points=[[0,0.5],[1,0.5]];portConstraint=eastwest;" parent="kB5Wtqeiwu8v_5wdKeYX-28" vertex="1">
          <mxGeometry y="80" width="750" height="40" as="geometry" />
        </mxCell>
        <mxCell id="kB5Wtqeiwu8v_5wdKeYX-34" value="&lt;font style=&quot;font-size: 14px;&quot;&gt;&lt;b&gt;Код&lt;/b&gt;&lt;/font&gt;" style="shape=partialRectangle;html=1;whiteSpace=wrap;connectable=0;strokeColor=inherit;overflow=hidden;fillColor=none;top=0;left=0;bottom=0;right=0;pointerEvents=1;" parent="kB5Wtqeiwu8v_5wdKeYX-33" vertex="1">
          <mxGeometry width="240" height="40" as="geometry">
            <mxRectangle width="240" height="40" as="alternateBounds" />
          </mxGeometry>
        </mxCell>
        <mxCell id="kB5Wtqeiwu8v_5wdKeYX-35" value="&lt;span style=&quot;text-wrap: nowrap;&quot;&gt;&lt;font style=&quot;font-size: 14px;&quot;&gt;UC1_US1_OBS_CB1&lt;/font&gt;&lt;/span&gt;" style="shape=partialRectangle;html=1;whiteSpace=wrap;connectable=0;strokeColor=inherit;overflow=hidden;fillColor=none;top=0;left=0;bottom=0;right=0;pointerEvents=1;" parent="kB5Wtqeiwu8v_5wdKeYX-33" vertex="1">
          <mxGeometry x="240" width="510" height="40" as="geometry">
            <mxRectangle width="510" height="40" as="alternateBounds" />
          </mxGeometry>
        </mxCell>
        <mxCell id="kB5Wtqeiwu8v_5wdKeYX-37" value="" style="shape=tableRow;horizontal=0;startSize=0;swimlaneHead=0;swimlaneBody=0;strokeColor=inherit;top=0;left=0;bottom=0;right=0;collapsible=0;dropTarget=0;fillColor=none;points=[[0,0.5],[1,0.5]];portConstraint=eastwest;" parent="kB5Wtqeiwu8v_5wdKeYX-28" vertex="1">
          <mxGeometry y="120" width="750" height="40" as="geometry" />
        </mxCell>
        <mxCell id="kB5Wtqeiwu8v_5wdKeYX-38" value="&lt;font style=&quot;font-size: 14px;&quot;&gt;&lt;b&gt;Система&lt;/b&gt;&lt;/font&gt;" style="shape=partialRectangle;html=1;whiteSpace=wrap;connectable=0;strokeColor=inherit;overflow=hidden;fillColor=none;top=0;left=0;bottom=0;right=0;pointerEvents=1;" parent="kB5Wtqeiwu8v_5wdKeYX-37" vertex="1">
          <mxGeometry width="240" height="40" as="geometry">
            <mxRectangle width="240" height="40" as="alternateBounds" />
          </mxGeometry>
        </mxCell>
        <mxCell id="kB5Wtqeiwu8v_5wdKeYX-39" value="&lt;font style=&quot;font-size: 14px;&quot;&gt;Мобильное приложение &quot;Озон&quot;, Сервис &quot;Озон Банк&quot;&lt;/font&gt;" style="shape=partialRectangle;html=1;whiteSpace=wrap;connectable=0;strokeColor=inherit;overflow=hidden;fillColor=none;top=0;left=0;bottom=0;right=0;pointerEvents=1;" parent="kB5Wtqeiwu8v_5wdKeYX-37" vertex="1">
          <mxGeometry x="240" width="510" height="40" as="geometry">
            <mxRectangle width="510" height="40" as="alternateBounds" />
          </mxGeometry>
        </mxCell>
        <mxCell id="kB5Wtqeiwu8v_5wdKeYX-41" value="" style="shape=tableRow;horizontal=0;startSize=0;swimlaneHead=0;swimlaneBody=0;strokeColor=inherit;top=0;left=0;bottom=0;right=0;collapsible=0;dropTarget=0;fillColor=none;points=[[0,0.5],[1,0.5]];portConstraint=eastwest;" parent="kB5Wtqeiwu8v_5wdKeYX-28" vertex="1">
          <mxGeometry y="160" width="750" height="40" as="geometry" />
        </mxCell>
        <mxCell id="kB5Wtqeiwu8v_5wdKeYX-42" value="&lt;font style=&quot;font-size: 14px;&quot;&gt;&lt;b&gt;Действующие лица (акторы)&lt;/b&gt;&lt;/font&gt;" style="shape=partialRectangle;html=1;whiteSpace=wrap;connectable=0;strokeColor=inherit;overflow=hidden;fillColor=none;top=0;left=0;bottom=0;right=0;pointerEvents=1;" parent="kB5Wtqeiwu8v_5wdKeYX-41" vertex="1">
          <mxGeometry width="240" height="40" as="geometry">
            <mxRectangle width="240" height="40" as="alternateBounds" />
          </mxGeometry>
        </mxCell>
        <mxCell id="kB5Wtqeiwu8v_5wdKeYX-43" value="&lt;font style=&quot;font-size: 14px;&quot;&gt;Клиент\Пользователь сервиса &quot;Озон Банк&quot;&lt;/font&gt;" style="shape=partialRectangle;html=1;whiteSpace=wrap;connectable=0;strokeColor=inherit;overflow=hidden;fillColor=none;top=0;left=0;bottom=0;right=0;pointerEvents=1;" parent="kB5Wtqeiwu8v_5wdKeYX-41" vertex="1">
          <mxGeometry x="240" width="510" height="40" as="geometry">
            <mxRectangle width="510" height="40" as="alternateBounds" />
          </mxGeometry>
        </mxCell>
        <mxCell id="kB5Wtqeiwu8v_5wdKeYX-49" value="" style="shape=tableRow;horizontal=0;startSize=0;swimlaneHead=0;swimlaneBody=0;strokeColor=inherit;top=0;left=0;bottom=0;right=0;collapsible=0;dropTarget=0;fillColor=none;points=[[0,0.5],[1,0.5]];portConstraint=eastwest;" parent="kB5Wtqeiwu8v_5wdKeYX-28" vertex="1">
          <mxGeometry y="200" width="750" height="80" as="geometry" />
        </mxCell>
        <mxCell id="kB5Wtqeiwu8v_5wdKeYX-50" value="&lt;font style=&quot;font-size: 14px;&quot;&gt;&lt;b&gt;Ограничения&lt;/b&gt;&lt;/font&gt;" style="shape=partialRectangle;html=1;whiteSpace=wrap;connectable=0;strokeColor=inherit;overflow=hidden;fillColor=none;top=0;left=0;bottom=0;right=0;pointerEvents=1;" parent="kB5Wtqeiwu8v_5wdKeYX-49" vertex="1">
          <mxGeometry width="240" height="80" as="geometry">
            <mxRectangle width="240" height="80" as="alternateBounds" />
          </mxGeometry>
        </mxCell>
        <mxCell id="kB5Wtqeiwu8v_5wdKeYX-51" value="&lt;span style=&quot;font-size: 14px; background-color: initial;&quot;&gt;Невозможность выбора категорий на следующий месяц в период с первого (включительно) и до 20го числа (исключительно) текущего месяца - область выбора кэшбэка недоступна и на ней есть плашка с отсчётом времени, необходимого для наступления 20го числа текущего месяца.&lt;/span&gt;" style="shape=partialRectangle;html=1;whiteSpace=wrap;connectable=0;strokeColor=inherit;overflow=hidden;fillColor=none;top=0;left=0;bottom=0;right=0;pointerEvents=1;align=center;" parent="kB5Wtqeiwu8v_5wdKeYX-49" vertex="1">
          <mxGeometry x="240" width="510" height="80" as="geometry">
            <mxRectangle width="510" height="80" as="alternateBounds" />
          </mxGeometry>
        </mxCell>
        <mxCell id="kB5Wtqeiwu8v_5wdKeYX-53" value="" style="shape=tableRow;horizontal=0;startSize=0;swimlaneHead=0;swimlaneBody=0;strokeColor=inherit;top=0;left=0;bottom=0;right=0;collapsible=0;dropTarget=0;fillColor=none;points=[[0,0.5],[1,0.5]];portConstraint=eastwest;" parent="kB5Wtqeiwu8v_5wdKeYX-28" vertex="1">
          <mxGeometry y="280" width="750" height="80" as="geometry" />
        </mxCell>
        <mxCell id="kB5Wtqeiwu8v_5wdKeYX-54" value="&lt;font style=&quot;font-size: 14px;&quot;&gt;&lt;b&gt;Предусловия&lt;/b&gt;&lt;/font&gt;" style="shape=partialRectangle;html=1;whiteSpace=wrap;connectable=0;strokeColor=inherit;overflow=hidden;fillColor=none;top=0;left=0;bottom=0;right=0;pointerEvents=1;" parent="kB5Wtqeiwu8v_5wdKeYX-53" vertex="1">
          <mxGeometry width="240" height="80" as="geometry">
            <mxRectangle width="240" height="80" as="alternateBounds" />
          </mxGeometry>
        </mxCell>
        <mxCell id="kB5Wtqeiwu8v_5wdKeYX-55" value="&lt;span style=&quot;font-size: 14px; background-color: initial;&quot;&gt;&lt;span style=&quot;white-space: pre;&quot;&gt;&#x9;&lt;/span&gt;1. Авторизоваться в сервисе &quot;Озон Банка&quot;.&lt;/span&gt;&lt;br&gt;&lt;span style=&quot;font-size: 14px; background-color: initial;&quot;&gt;&lt;span style=&quot;white-space: pre;&quot;&gt;&#x9;&lt;/span&gt;2. Период с 20го числа (включительно) текущего месяца и до 1го числа (исключительно) следующего месяца&lt;/span&gt;" style="shape=partialRectangle;html=1;whiteSpace=wrap;connectable=0;strokeColor=inherit;overflow=hidden;fillColor=none;top=0;left=0;bottom=0;right=0;pointerEvents=1;align=left;" parent="kB5Wtqeiwu8v_5wdKeYX-53" vertex="1">
          <mxGeometry x="240" width="510" height="80" as="geometry">
            <mxRectangle width="510" height="80" as="alternateBounds" />
          </mxGeometry>
        </mxCell>
        <mxCell id="kB5Wtqeiwu8v_5wdKeYX-93" value="" style="shape=tableRow;horizontal=0;startSize=0;swimlaneHead=0;swimlaneBody=0;strokeColor=inherit;top=0;left=0;bottom=0;right=0;collapsible=0;dropTarget=0;fillColor=none;points=[[0,0.5],[1,0.5]];portConstraint=eastwest;" parent="kB5Wtqeiwu8v_5wdKeYX-28" vertex="1">
          <mxGeometry y="360" width="750" height="40" as="geometry" />
        </mxCell>
        <mxCell id="kB5Wtqeiwu8v_5wdKeYX-94" value="&lt;div&gt;&lt;span style=&quot;background-color: initial;&quot;&gt;&lt;font style=&quot;font-size: 14px;&quot;&gt;&lt;b&gt;Триггер&lt;/b&gt;&lt;/font&gt;&lt;/span&gt;&lt;br&gt;&lt;/div&gt;" style="shape=partialRectangle;html=1;whiteSpace=wrap;connectable=0;strokeColor=inherit;overflow=hidden;fillColor=none;top=0;left=0;bottom=0;right=0;pointerEvents=1;" parent="kB5Wtqeiwu8v_5wdKeYX-93" vertex="1">
          <mxGeometry width="240" height="40" as="geometry">
            <mxRectangle width="240" height="40" as="alternateBounds" />
          </mxGeometry>
        </mxCell>
        <mxCell id="kB5Wtqeiwu8v_5wdKeYX-95" value="&lt;div&gt;&lt;span style=&quot;font-size: 14px; background-color: initial;&quot;&gt;Пользователь нажал на область выбора кэшбэка на следующий месяц&amp;nbsp;&lt;/span&gt;&lt;/div&gt;" style="shape=partialRectangle;html=1;whiteSpace=wrap;connectable=0;strokeColor=inherit;overflow=hidden;fillColor=none;top=0;left=0;bottom=0;right=0;pointerEvents=1;align=center;" parent="kB5Wtqeiwu8v_5wdKeYX-93" vertex="1">
          <mxGeometry x="240" width="510" height="40" as="geometry">
            <mxRectangle width="510" height="40" as="alternateBounds" />
          </mxGeometry>
        </mxCell>
        <mxCell id="kB5Wtqeiwu8v_5wdKeYX-96" style="shape=tableRow;horizontal=0;startSize=0;swimlaneHead=0;swimlaneBody=0;strokeColor=inherit;top=0;left=0;bottom=0;right=0;collapsible=0;dropTarget=0;fillColor=none;points=[[0,0.5],[1,0.5]];portConstraint=eastwest;" parent="kB5Wtqeiwu8v_5wdKeYX-28" vertex="1">
          <mxGeometry y="400" width="750" height="80" as="geometry" />
        </mxCell>
        <mxCell id="kB5Wtqeiwu8v_5wdKeYX-97" value="&lt;font style=&quot;font-size: 14px;&quot;&gt;&lt;b&gt;Результат&lt;/b&gt;&lt;/font&gt;" style="shape=partialRectangle;html=1;whiteSpace=wrap;connectable=0;strokeColor=inherit;overflow=hidden;fillColor=none;top=0;left=0;bottom=0;right=0;pointerEvents=1;" parent="kB5Wtqeiwu8v_5wdKeYX-96" vertex="1">
          <mxGeometry width="240" height="80" as="geometry">
            <mxRectangle width="240" height="80" as="alternateBounds" />
          </mxGeometry>
        </mxCell>
        <mxCell id="kB5Wtqeiwu8v_5wdKeYX-98" value="&lt;span style=&quot;font-size: 14px; background-color: initial;&quot;&gt;&lt;span style=&quot;white-space: pre;&quot;&gt;&#x9;&lt;/span&gt;1. Категории кэшбэка выбраны в установленный период (см. Предусловия)&lt;/span&gt;&lt;br&gt;&lt;span style=&quot;font-size: 14px; background-color: initial;&quot;&gt;&lt;span style=&quot;white-space: pre;&quot;&gt;&#x9;&lt;/span&gt;2. Область выбора кэшбэка помечена зелёным кружком в верхнем правом углу&lt;/span&gt;" style="shape=partialRectangle;html=1;whiteSpace=wrap;connectable=0;strokeColor=inherit;overflow=hidden;fillColor=none;top=0;left=0;bottom=0;right=0;pointerEvents=1;align=left;" parent="kB5Wtqeiwu8v_5wdKeYX-96" vertex="1">
          <mxGeometry x="240" width="510" height="80" as="geometry">
            <mxRectangle width="510" height="80" as="alternateBounds" />
          </mxGeometry>
        </mxCell>
        <mxCell id="kB5Wtqeiwu8v_5wdKeYX-57" value="" style="shape=tableRow;horizontal=0;startSize=0;swimlaneHead=0;swimlaneBody=0;strokeColor=inherit;top=0;left=0;bottom=0;right=0;collapsible=0;dropTarget=0;fillColor=none;points=[[0,0.5],[1,0.5]];portConstraint=eastwest;" parent="kB5Wtqeiwu8v_5wdKeYX-28" vertex="1">
          <mxGeometry y="480" width="750" height="240" as="geometry" />
        </mxCell>
        <mxCell id="kB5Wtqeiwu8v_5wdKeYX-58" value="&lt;font style=&quot;font-size: 14px;&quot;&gt;&lt;b&gt;Основной сценарий&lt;/b&gt;&lt;/font&gt;" style="shape=partialRectangle;html=1;whiteSpace=wrap;connectable=0;strokeColor=inherit;overflow=hidden;fillColor=none;top=0;left=0;bottom=0;right=0;pointerEvents=1;" parent="kB5Wtqeiwu8v_5wdKeYX-57" vertex="1">
          <mxGeometry width="240" height="240" as="geometry">
            <mxRectangle width="240" height="240" as="alternateBounds" />
          </mxGeometry>
        </mxCell>
        <mxCell id="kB5Wtqeiwu8v_5wdKeYX-59" value="&lt;span style=&quot;font-size: 14px; background-color: initial;&quot;&gt;&lt;span style=&quot;white-space: pre;&quot;&gt;&#x9;&lt;/span&gt;1&lt;/span&gt;&lt;span style=&quot;font-size: 14px; background-color: initial;&quot;&gt;. Пользователь нажимает на область выбора кэшбэка на следующий месяц.&lt;/span&gt;&lt;br&gt;&lt;span style=&quot;font-size: 14px; background-color: initial;&quot;&gt;&lt;span style=&quot;white-space: pre;&quot;&gt;&#x9;&lt;/span&gt;2. Система переводит его на экран выбора категорий кэшбэка.&lt;/span&gt;&lt;br&gt;&lt;span style=&quot;font-size: 14px; background-color: initial;&quot;&gt;&lt;span style=&quot;white-space: pre;&quot;&gt;&#x9;&lt;/span&gt;3. Пользователь отмечает ВСЕ доступные ему категории кэшбэка.&lt;/span&gt;&lt;br&gt;&lt;span style=&quot;font-size: 14px; background-color: initial;&quot;&gt;&lt;span style=&quot;white-space: pre;&quot;&gt;&#x9;&lt;/span&gt;4. Система помечает выбранные категории помечаются зелёным кружком с галочкой в правом конце для соответствующей категории.&lt;/span&gt;&lt;div&gt;&lt;span style=&quot;font-size: 14px; background-color: initial;&quot;&gt;&lt;span style=&quot;white-space: pre;&quot;&gt;&#x9;&lt;/span&gt;5.&amp;nbsp;Затем система делает доступной кнопку &quot;Выбрать&quot; в нижней области экрана.&lt;/span&gt;&lt;div&gt;&lt;span style=&quot;font-size: 14px;&quot;&gt;&lt;span style=&quot;white-space: pre;&quot;&gt;&#x9;&lt;/span&gt;6. Пользователь нажимает кнопку &quot;Выбрать&quot;.&lt;/span&gt;&lt;/div&gt;&lt;div&gt;&lt;span style=&quot;font-size: 14px;&quot;&gt;&lt;span style=&quot;white-space: pre;&quot;&gt;&#x9;&lt;/span&gt;7. В системе сохраняются категории кэшбэка на следующий месяц.&lt;br&gt;&lt;/span&gt;&lt;span style=&quot;font-size: 14px; background-color: initial;&quot;&gt;&lt;span style=&quot;white-space: pre;&quot;&gt;&#x9;&lt;/span&gt;8. Система переводит его на главный экран раздела &quot;Бонусы&quot;.&lt;/span&gt;&lt;/div&gt;&lt;div&gt;&lt;span style=&quot;background-color: initial; font-size: 14px;&quot;&gt;&lt;span style=&quot;white-space: pre;&quot;&gt;&#x9;&lt;/span&gt;9. Система помечает&amp;nbsp;&lt;/span&gt;&lt;span style=&quot;background-color: initial; font-size: 14px;&quot;&gt;область выбора кэшбэка на следующий месяц зелёным кружком в верхнем правом углу.&lt;/span&gt;&lt;/div&gt;&lt;/div&gt;" style="shape=partialRectangle;html=1;whiteSpace=wrap;connectable=0;strokeColor=inherit;overflow=hidden;fillColor=none;top=0;left=0;bottom=0;right=0;pointerEvents=1;align=left;" parent="kB5Wtqeiwu8v_5wdKeYX-57" vertex="1">
          <mxGeometry x="240" width="510" height="240" as="geometry">
            <mxRectangle width="510" height="240" as="alternateBounds" />
          </mxGeometry>
        </mxCell>
        <mxCell id="kB5Wtqeiwu8v_5wdKeYX-61" value="" style="shape=tableRow;horizontal=0;startSize=0;swimlaneHead=0;swimlaneBody=0;strokeColor=inherit;top=0;left=0;bottom=0;right=0;collapsible=0;dropTarget=0;fillColor=none;points=[[0,0.5],[1,0.5]];portConstraint=eastwest;" parent="kB5Wtqeiwu8v_5wdKeYX-28" vertex="1">
          <mxGeometry y="720" width="750" height="40" as="geometry" />
        </mxCell>
        <mxCell id="kB5Wtqeiwu8v_5wdKeYX-62" value="&lt;font style=&quot;font-size: 14px;&quot;&gt;&lt;b&gt;Альтернативные сценарии&lt;/b&gt;&lt;/font&gt;" style="shape=partialRectangle;html=1;whiteSpace=wrap;connectable=0;strokeColor=inherit;overflow=hidden;fillColor=none;top=0;left=0;bottom=0;right=0;pointerEvents=1;" parent="kB5Wtqeiwu8v_5wdKeYX-61" vertex="1">
          <mxGeometry width="240" height="40" as="geometry">
            <mxRectangle width="240" height="40" as="alternateBounds" />
          </mxGeometry>
        </mxCell>
        <mxCell id="kB5Wtqeiwu8v_5wdKeYX-63" value="&lt;div style=&quot;&quot;&gt;&lt;font style=&quot;font-size: 14px;&quot;&gt;Отсутствует&lt;/font&gt;&lt;/div&gt;" style="shape=partialRectangle;html=1;whiteSpace=wrap;connectable=0;strokeColor=inherit;overflow=hidden;fillColor=none;top=0;left=0;bottom=0;right=0;pointerEvents=1;align=center;" parent="kB5Wtqeiwu8v_5wdKeYX-61" vertex="1">
          <mxGeometry x="240" width="510" height="40" as="geometry">
            <mxRectangle width="510" height="40" as="alternateBounds" />
          </mxGeometry>
        </mxCell>
        <mxCell id="kB5Wtqeiwu8v_5wdKeYX-65" value="" style="shape=tableRow;horizontal=0;startSize=0;swimlaneHead=0;swimlaneBody=0;strokeColor=inherit;top=0;left=0;bottom=0;right=0;collapsible=0;dropTarget=0;fillColor=none;points=[[0,0.5],[1,0.5]];portConstraint=eastwest;" parent="kB5Wtqeiwu8v_5wdKeYX-28" vertex="1">
          <mxGeometry y="760" width="750" height="80" as="geometry" />
        </mxCell>
        <mxCell id="kB5Wtqeiwu8v_5wdKeYX-66" value="&lt;font style=&quot;font-size: 14px;&quot;&gt;&lt;b&gt;Исключительные сценарии&lt;/b&gt;&lt;/font&gt;" style="shape=partialRectangle;html=1;whiteSpace=wrap;connectable=0;strokeColor=inherit;overflow=hidden;fillColor=none;top=0;left=0;bottom=0;right=0;pointerEvents=1;" parent="kB5Wtqeiwu8v_5wdKeYX-65" vertex="1">
          <mxGeometry width="240" height="80" as="geometry">
            <mxRectangle width="240" height="80" as="alternateBounds" />
          </mxGeometry>
        </mxCell>
        <mxCell id="kB5Wtqeiwu8v_5wdKeYX-67" value="&lt;div style=&quot;text-align: left;&quot;&gt;&lt;span style=&quot;background-color: initial; font-size: 14px;&quot;&gt;&lt;span style=&quot;white-space: pre;&quot;&gt;&#x9;&lt;/span&gt;6а. пользователь прожал кнопку назад (возврат на предыдущий экран = &quot;Бонусы&quot;), не сохранив возможно выбранные категории.&lt;/span&gt;&lt;/div&gt;&lt;div style=&quot;text-align: left;&quot;&gt;&lt;span style=&quot;background-color: initial; font-size: 14px;&quot;&gt;&lt;span style=&quot;white-space: pre;&quot;&gt;&#x9;&lt;/span&gt;6b. Система сбрасывает возможные выбранные категории и переводит пользователя на главную страницу раздела &quot;Бонусы&quot;.&lt;/span&gt;&lt;/div&gt;" style="shape=partialRectangle;html=1;whiteSpace=wrap;connectable=0;strokeColor=inherit;overflow=hidden;fillColor=none;top=0;left=0;bottom=0;right=0;pointerEvents=1;" parent="kB5Wtqeiwu8v_5wdKeYX-65" vertex="1">
          <mxGeometry x="240" width="510" height="80" as="geometry">
            <mxRectangle width="510" height="80" as="alternateBounds" />
          </mxGeometry>
        </mxCell>
        <mxCell id="kB5Wtqeiwu8v_5wdKeYX-99" value="&lt;font style=&quot;font-size: 14px;&quot;&gt;Примечание. Шаги 2-6 повторяют ту же логику, что и при выборе категорий на текущий месяц.&lt;/font&gt;" style="rounded=1;whiteSpace=wrap;html=1;fontSize=16;startSize=40;fontStyle=1;" parent="1" vertex="1">
          <mxGeometry x="880" y="650" width="220" height="100" as="geometry" />
        </mxCell>
      </root>
    </mxGraphModel>
  </diagram>
</mxfile>
